<!-- SVG Icons for CVCWVUAA Website -->
<!-- These replace emoji icons with accessible, scalable SVG graphics -->

<!-- Search Icon -->
<svg class="icon icon-search" xmlns="http://www.w3.org/2000/svg" viewBox="0 0 24 24" fill="none" stroke="currentColor" stroke-width="2" stroke-linecap="round" stroke-linejoin="round" aria-label="Search">
  <circle cx="11" cy="11" r="8"></circle>
  <path d="m21 21-4.35-4.35"></path>
</svg>

<!-- Moon Icon (Dark Mode Toggle) -->
<svg class="icon icon-moon" xmlns="http://www.w3.org/2000/svg" viewBox="0 0 24 24" fill="none" stroke="currentColor" stroke-width="2" stroke-linecap="round" stroke-linejoin="round" aria-label="Toggle dark mode">
  <path d="M21 12.79A9 9 0 1 1 11.21 3 7 7 0 0 0 21 12.79z"></path>
</svg>

<!-- Sun Icon (Light Mode Toggle) -->
<svg class="icon icon-sun" xmlns="http://www.w3.org/2000/svg" viewBox="0 0 24 24" fill="none" stroke="currentColor" stroke-width="2" stroke-linecap="round" stroke-linejoin="round" aria-label="Toggle light mode">
  <circle cx="12" cy="12" r="5"></circle>
  <line x1="12" y1="1" x2="12" y2="3"></line>
  <line x1="12" y1="21" x2="12" y2="23"></line>
  <line x1="4.22" y1="4.22" x2="5.64" y2="5.64"></line>
  <line x1="18.36" y1="18.36" x2="19.78" y2="19.78"></line>
  <line x1="1" y1="12" x2="3" y2="12"></line>
  <line x1="21" y1="12" x2="23" y2="12"></line>
  <line x1="4.22" y1="19.78" x2="5.64" y2="18.36"></line>
  <line x1="18.36" y1="5.64" x2="19.78" y2="4.22"></line>
</svg>

<!-- Lock Icon (Member Portal) -->
<svg class="icon icon-lock" xmlns="http://www.w3.org/2000/svg" viewBox="0 0 24 24" fill="none" stroke="currentColor" stroke-width="2" stroke-linecap="round" stroke-linejoin="round" aria-label="Member portal">
  <rect x="3" y="11" width="18" height="11" rx="2" ry="2"></rect>
  <path d="M7 11V7a5 5 0 0 1 10 0v4"></path>
</svg>

<!-- User Icon (Member Portal Alternative) -->
<svg class="icon icon-user" xmlns="http://www.w3.org/2000/svg" viewBox="0 0 24 24" fill="none" stroke="currentColor" stroke-width="2" stroke-linecap="round" stroke-linejoin="round" aria-label="Member portal">
  <path d="M20 21v-2a4 4 0 0 0-4-4H8a4 4 0 0 0-4 4v2"></path>
  <circle cx="12" cy="7" r="4"></circle>
</svg>
